PathFileType	4	(X/Y/Z)	/Users/niels/Desktop/University/Third Semester/Perception and Action/Exam/Gymnastics Motion Tracking/Code for Gym Tracking/Analyzed Data/Webcam_Backflip/id5_2_trajectory_Sports2D/id5_2_trajectory_Sports2D_px_person00.trc
DataRate	CameraRate	NumFrames	NumMarkers	Units	OrigDataRate	OrigDataStartFrame	OrigNumFrames
29.423076923076923	29.423076923076923	11	22	m	29.423076923076923	0	52
Frame#	Time	Hip			RHip			RKnee			RAnkle			RBigToe			RSmallToe			RHeel			LHip			LKnee			LAnkle			LBigToe			LSmallToe			LHeel			Neck			Head			Nose			RShoulder			RElbow			RWrist			LShoulder			LElbow			LWrist		
		X1	Y1	Z1	X2	Y2	Z2	X3	Y3	Z3	X4	Y4	Z4	X5	Y5	Z5	X6	Y6	Z6	X7	Y7	Z7	X8	Y8	Z8	X9	Y9	Z9	X10	Y10	Z10	X11	Y11	Z11	X12	Y12	Z12	X13	Y13	Z13	X14	Y14	Z14	X15	Y15	Z15	X16	Y16	Z16	X17	Y17	Z17	X18	Y18	Z18	X19	Y19	Z19	X20	Y20	Z20	X21	Y21	Z21	X22	Y22	Z22
0	0.0	0.9816976791023486	-0.7952414545988407	0.0	0.9639810066280647	-0.8005576580407457	0.0	0.9834550871542302	-1.0358600031183585	0.0	0.963967215668126	-1.154309239476347	0.0			0.0			0.0	0.9309915132215414	-1.1159900387303592	0.0	1.0135730750430731	-0.8005618801727512	0.0	1.0100241638670733	-1.0305571305760437	0.0	0.9887891340511636	-1.154278506784877	0.0	1.05435142993927	-1.0937250609397888	0.0	1.0588984970830362	-1.1130814447935609	0.0	0.9226080900695809	-1.097127353908023	0.0	0.9958387923513288	-0.47505471910093156	0.0	1.02060419234799	-0.3423779477875369	0.0	1.0382947666563722	-0.4149036600022351	0.0	0.9409815707336443	-0.5263586827943642	0.0	0.9446492199324804	-0.690739597986152	0.0	0.9836517685585203	-0.8356644234901118	0.0	1.027699558502708	-0.5281407658285497	0.0	1.043605339731158	-0.6820473964946814	0.0	1.068325157981761	-0.8076549806777845	0.0
1	0.03398692810457517	0.9829840474425061	-0.7952939521415677	0.0	0.965331457233441	-0.8000325592514379	0.0	0.9837980272487373	-1.0328310200261406	0.0	0.9649130462898431	-1.154710048562306	0.0			0.0			0.0	0.9309915250763554	-1.1159900361788608	0.0	1.014495812473148	-0.7999566443091984	0.0	1.0103080779000084	-1.0271470448374542	0.0	0.9907934514516961	-1.1547969438071353	0.0	1.05435142993927	-1.0937250609397888	0.0	1.0588985999439917	-1.1130816923559141	0.0	0.9226081040740127	-1.0971273541856346	0.0	0.9977428848505431	-0.4750247019990182	0.0	1.02312135014739	-0.343831874792844	0.0	1.040103909372375	-0.4154205870902903	0.0	0.94344894895721	-0.5262556772388066	0.0	0.9468907708642017	-0.689511090734181	0.0	0.9852999700535072	-0.8361675960625893	0.0	1.026978546241613	-0.5275016341691569	0.0	1.0439433382790384	-0.6810727760267082	0.0	1.0666426312000554	-0.8069701011190369	0.0
2	0.06797385620915034	0.9840909881302938	-0.795469676547489	0.0	0.9667692215190032	-0.7997814510091065	0.0	0.9839000528861758	-1.0307362524224277	0.0	0.9655467362419012	-1.1549474607313643	0.0			0.0			0.0	0.9309915441956099	-1.1159900283296573	0.0	1.015307853130868	-0.7996081945358552	0.0	1.0104919710061795	-1.0246506287051804	0.0	0.9923208889867575	-1.1552625085961805	0.0	1.05435142993927	-1.0937250609397888	0.0	1.0588986332325372	-1.1130819884056553	0.0	0.92260813342548	-1.097127354519936	0.0	0.999430595977348	-0.47513145140986734	0.0	1.0254205529973741	-0.34518162469511277	0.0	1.04193423562125	-0.4160890381216649	0.0	0.945953588498917	-0.5262813063624372	0.0	0.9491302097856453	-0.6888034612569447	0.0	0.9873261590702761	-0.8370258961019654	0.0	1.0262573352087268	-0.527103945213431	0.0	1.044054533460341	-0.6802554265351443	0.0	1.065064625228971	-0.806446573091062	0.0
3	0.1019607843137255	0.9848536981722668	-0.7957913765920827	0.0	0.9683732086954544	-0.7998775224687585	0.0	0.9836195298523123	-1.0300428487590734	0.0	0.9656877343616485	-1.1549416919161866	0.0			0.0			0.0	0.9309915684157709	-1.1159900127774205	0.0	1.0158574624213137	-0.7995846326755873	0.0	1.0103523413461641	-1.0235649165088274	0.0	0.9929370648489386	-1.1556035069946224	0.0	1.05435142993927	-1.0937250609397888	0.0	1.0588984762254001	-1.1130822084065684	0.0	0.922608180769587	-1.097127354773057	0.0	1.0008055766665256	-0.475411390528989	0.0	1.027412263339044	-0.3463476913297166	0.0	1.0438474803291846	-0.4169416092070779	0.0	0.9485719129589332	-0.526461749770296	0.0	0.9516655416758409	-0.6889860354302824	0.0	0.9904871010550327	-0.8385135639326983	0.0	1.0254837201066325	-0.5269910125555888	0.0	1.0437106374829155	-0.6797105886483708	0.0	1.0636691136897034	-0.8062101595299113	0.0
4	0.13594771241830067	0.9851610281176495	-0.7962219969219048	0.0	0.9701909264439553	-0.8001983295566383	0.0	0.9829838572270826	-1.030701848456882	0.0	0.965436702228303	-1.1547002703247518	0.0			0.0			0.0	0.9309915891616142	-1.1159899887302753	0.0	1.0159257096720926	-0.7997909492985562	0.0	1.0095384435112398	-1.0239122099749665	0.0	0.9923386372922129	-1.155769534271787	0.0	1.05435142993927	-1.0937250609397888	0.0	1.0588979608576232	-1.11308210038134	0.0	0.9226082407546355	-1.0971273546640716	0.0	1.001900347856376	-0.47583106691614696	0.0	1.0291058710502046	-0.3472799119286756	0.0	1.045879808364653	-0.41790077222943334	0.0	0.9513841740144395	-0.526765340528583	0.0	0.9550209732541111	-0.6902357268220763	0.0	0.9957091062034303	-0.8408120511799398	0.0	1.0245939531995156	-0.5270305591219058	0.0	1.0426826194842573	-0.6795216159870798	0.0	1.062489637393636	-0.8064034611983728	0.0
5	0.16993464052287582	0.9849654761520908	-0.7967456875915443	0.0	0.9722138266883809	-0.8005514411444594	0.0	0.9822160080001788	-1.0323261144452642	0.0	0.96525020870726	-1.154283034271002	0.0			0.0			0.0	0.9309915879308374	-1.1159899598224867	0.0	1.0152041054817795	-0.8001133496866992	0.0	1.0076480032622535	-1.025368665795349	0.0	0.9904201562308194	-1.1556404242803395	0.0	1.05435142993927	-1.0937250609397888	0.0	1.0588969142333235	-1.113081268331163	0.0	0.9226082921537437	-1.0971273537491313	0.0	1.0028127164355671	-0.47636272641080063	0.0	1.0305568468220494	-0.3479668844056257	0.0	1.0479892824762802	-0.41885588455937917	0.0	0.9545142995439716	-0.5271604102792818	0.0	0.9598235744804361	-0.6924449218651065	0.0	1.003927623221832	-0.843759730051356	0.0	1.0235476689484888	-0.527071570141654	0.0	1.0407797032768122	-0.6797321409193061	0.0	1.061585594788699	-0.8071669029471196	0.0
6	0.203921568627451	0.9842518389690145	-0.7973215006455304	0.0	0.9743583208841421	-0.8007373950993111	0.0	0.9816530457364727	-1.034312925562929	0.0	0.9657644763893761	-1.1537779250062885	0.0			0.0			0.0	0.9309915342668078	-1.1159899380350382	0.0	1.01336389311125	-0.8004762779371044	0.0	1.004368135818471	-1.0273634033081651	0.0	0.9873053778114241	-1.1549460560653828	0.0	1.05435142993927	-1.0937250609397888	0.0	1.0588952647644396	-1.1130792262075253	0.0	0.9226082891574614	-1.0971273514798237	0.0	1.0036457453594108	-0.4769819150876488	0.0	1.0318594982628744	-0.34845536477821903	0.0	1.0500819612008208	-0.41973147053690696	0.0	0.9581700455642601	-0.5275963395830434	0.0	0.9666801489088536	-0.6951547431986006	0.0	1.015945401222396	-0.8466311569171664	0.0	1.0223223846450649	-0.5270210322905441	0.0	1.0379264140813595	-0.6802757137056682	0.0	1.061089659059439	-0.8085352531017123	0.0
7	0.2379084967320262	0.9830642643897043	-0.7977837070341738	0.0	0.9764627865925495	-0.8005882245995646	0.0	0.981555186164294	-1.035993242014496	0.0	0.9674268751493972	-1.1532588648712783	0.0			0.0			0.0	0.9309913886613574	-1.1159899477374224	0.0	1.0103027052094067	-0.8007986281766285	0.0	0.9996797936037985	-1.0292388459791204	0.0	0.9834304650588773	-1.1532049915711646	0.0	1.05435142993927	-1.0937250609397888	0.0	1.0588932330705751	-1.113075587516852	0.0	0.9226081563483817	-1.0971273474128969	0.0	1.004493442456694	-0.4776413837456784	0.0	1.0331204149043407	-0.3488409585282008	0.0	1.0520693676997004	-0.42051879645084017	0.0	0.9625257750276011	-0.5279763945852466	0.0	0.9760160887593038	-0.6975991045433987	0.0	1.032341547254469	-0.84807110029182	0.0	1.020954173659106	-0.526844355382848	0.0	1.034387741818959	-0.6809386605719625	0.0	1.0612083478602448	-0.8101684237773409	0.0
8	0.27189542483660134	0.9815990902357266	-0.7978812637926862	0.0	0.9783022904636465	-0.8000555878979654	0.0	0.9819418453735481	-1.0368936459937634	0.0	0.9701497638927714	-1.1526725269974074	0.0			0.0			0.0	0.9309911155031093	-1.115990027381214	0.0	1.0064400520465486	-0.800966026885583	0.0	0.9940554995239175	-1.0305124267775552	0.0	0.979523883886774	-1.1496935966918973	0.0	1.05435142993927	-1.0937250609397888	0.0	1.0588916034315587	-1.1130704595598235	0.0	0.9226077958800425	-1.0971273416495702	0.0	1.0054239472939703	-0.4782767434353517	0.0	1.0343875146913706	-0.3492089622406706	0.0	1.053881554051998	-0.42123174560018956	0.0	0.9674849130156086	-0.5281651964190847	0.0	0.9879027606999047	-0.6987425233774515	0.0	1.0533991122731674	-0.8461288526486559	0.0	1.019613270299911	-0.5265952622449909	0.0	1.0309724323436515	-0.681465247526189	0.0	1.0621229004460657	-0.8111863019804559	0.0
9	0.3058823529411765	0.9801752229591	-0.7973835841555119	0.0	0.979612119591747	-0.7992139092899391	0.0	0.9825961930802866	-1.036915966140223	0.0	0.9732286946599619	-1.1516496305227621	0.0			0.0			0.0	0.9309907118973527	-1.115990224398176	0.0	1.002685074559591	-0.8008521973818189	0.0	0.9884613133969693	-1.0310434414585588	0.0	0.9763123286284189	-1.1435319634086711	0.0	1.05435142993927	-1.0937250609397888	0.0	1.0588920129460648	-1.1130650757041443	0.0	0.9226071195280009	-1.0971273355438689	0.0	1.006423272966648	-0.4788226976393044	0.0	1.035592479556238	-0.34958237414904136	0.0	1.0554408340273744	-0.4218497230724208	0.0	0.972548075374098	-0.5280101583505669	0.0	1.0020845555508158	-0.6972457254236704	0.0	1.0790452714699634	-0.838388501141289	0.0	1.0185800567421837	-0.5264419639583388	0.0	1.0286619292204964	-0.6817141456733212	0.0	1.0636738174146225	-0.8105609877754949	0.0
10	0.33986928104575165	0.9790835761538373	-0.7961566721132448	0.0	0.9801356387325824	-0.7981326211067901	0.0	0.9831913478989341	-1.0362771275105978	0.0	0.9756021744765184	-1.149329087820663	0.0			0.0			0.0	0.9309902560966405	-1.1159905769713137	0.0	1.000111132619557	-0.800372662478014	0.0	0.9840729698297723	-1.0309896110240142	0.0	0.9742860924479091	-1.1340689605317726	0.0	1.05435142993927	-1.0937250609397888	0.0	1.0588970945787959	-1.1130625910116283	0.0	0.9226061200433594	-1.097127332599668	0.0	1.0073614331137053	-0.4792279737441349	0.0	1.0365678222643007	-0.34994223681199776	0.0	1.0566346836829617	-0.4223146817319866	0.0	0.9769293653512808	-0.5274074577338956	0.0	1.0182057051944597	-0.6915849333240426	0.0	1.1086891690641218	-0.8223348397575754	0.0	1.01810167678955	-0.5265716381911311	0.0	1.0278278682625226	-0.6817088463140184	0.0	1.0651316089713203	-0.8079596002790304	0.0
